<?xml version="1.0" standalone="no"?>
<!DOCTYPE svg PUBLIC "-//W3C//DTD SVG 20010904//EN"
 "http://www.w3.org/TR/2001/REC-SVG-20010904/DTD/svg10.dtd">
<svg version="1.0" xmlns="http://www.w3.org/2000/svg"
 width="413.000000pt" height="413.000000pt" viewBox="0 0 413.000000 413.000000"
 preserveAspectRatio="xMidYMid meet">

<g transform="translate(0.000000,413.000000) scale(0.100000,-0.100000)"
fill="#000000" stroke="none">
<path d="M1822 4069 c-40 -5 -96 -19 -125 -33 -238 -110 -249 -116 -321 -189
-142 -144 -241 -283 -300 -426 -41 -97 -70 -314 -61 -449 7 -88 10 -101 16
-72 5 19 11 64 14 100 8 99 19 141 48 187 15 24 27 48 27 55 0 7 10 23 23 34
12 12 35 56 50 98 39 105 119 192 205 222 l59 22 29 -23 c16 -12 39 -26 52
-29 13 -4 27 -18 32 -30 7 -19 19 -24 65 -30 48 -5 63 -3 92 14 19 11 39 18
44 15 5 -4 23 1 41 9 32 15 57 18 288 34 63 5 134 14 157 21 31 8 54 9 90 1
26 -6 105 -13 174 -15 140 -4 131 -1 256 -93 51 -37 83 -70 108 -111 19 -32
35 -62 35 -66 0 -5 12 -23 26 -42 14 -18 28 -46 30 -61 7 -41 24 -92 44 -137
20 -44 35 -149 32 -234 -2 -69 13 -56 27 23 20 108 14 212 -27 484 -16 105
-22 126 -45 150 -15 16 -27 37 -27 48 0 11 -13 45 -29 75 -92 168 -374 353
-631 413 -205 48 -317 56 -498 35z"/>
<path d="M1337 2717 c-37 -35 -67 -69 -67 -75 0 -16 10 -15 30 3 13 12 23 13
41 6 13 -5 18 -10 10 -10 -8 -1 -11 -4 -8 -7 4 -4 13 -1 22 6 8 7 43 14 76 17
56 3 61 2 49 -12 -12 -15 -6 -16 61 -10 58 5 90 3 149 -13 41 -11 89 -22 106
-23 32 -4 64 14 64 35 0 24 -58 75 -91 80 -103 18 -163 25 -170 21 -4 -3 -18
-1 -31 4 -32 12 -125 -6 -156 -30 -25 -19 -52 -25 -52 -11 0 15 24 32 46 32
25 0 49 24 39 40 -15 25 -54 8 -118 -53z"/>
<path d="M2630 2703 c0 -16 -6 -16 -32 -2 -15 8 -51 8 -137 -2 -64 -7 -122
-12 -129 -10 -16 3 -32 -41 -25 -68 3 -12 16 -24 29 -27 29 -7 32 -24 5 -24
-11 0 -23 -4 -26 -10 -3 -5 1 -10 9 -10 22 0 20 -17 -3 -25 -10 -3 -26 -13
-34 -23 -15 -17 -15 -18 6 -17 12 0 32 6 44 13 34 19 38 14 9 -13 -46 -42 -27
-49 30 -10 48 32 54 32 52 -8 -1 -18 6 -44 15 -58 10 -14 14 -29 10 -32 -8 -9
25 -9 64 -1 32 6 63 47 63 83 0 25 11 26 50 6 35 -18 42 -35 22 -57 -14 -16
-13 -18 5 -18 47 0 81 21 87 53 6 27 2 35 -20 54 -31 25 -76 36 -85 21 -8 -12
-113 8 -146 28 -11 7 -33 15 -48 18 -33 6 -43 14 -24 20 48 15 83 20 151 20
67 0 76 1 65 14 -10 13 -9 14 8 5 11 -6 47 -13 80 -17 39 -4 67 -14 81 -27
l22 -20 4 31 c4 25 -1 35 -23 53 -56 45 -84 62 -96 59 -7 -2 -13 2 -13 7 0 5
-16 9 -35 8 -20 -1 -35 -7 -35 -14z m95 -34 c11 -17 -1 -21 -15 -4 -8 9 -8 15
-2 15 6 0 14 -5 17 -11z m-266 -133 c-2 -2 -20 -6 -39 -10 -25 -4 -31 -3 -20
4 14 9 69 15 59 6z m226 -46 c3 -5 2 -10 -4 -10 -5 0 -13 5 -16 10 -3 6 -2 10
4 10 5 0 13 -4 16 -10z m-213 -25 c0 -5 -5 -11 -11 -13 -6 -2 -11 4 -11 13 0
9 5 15 11 13 6 -2 11 -8 11 -13z m58 -5 c0 -5 -4 -10 -10 -10 -5 0 -10 5 -10
10 0 6 5 10 10 10 6 0 10 -4 10 -10z"/>
<path d="M1443 2571 c-55 -19 -83 -37 -83 -53 0 -5 10 -7 23 -4 l22 6 -23 -12
c-12 -6 -21 -16 -19 -22 4 -13 62 -42 103 -52 l29 -7 -22 25 c-29 31 -29 34 7
53 40 21 47 19 53 -12 8 -41 28 -62 65 -73 30 -8 37 -6 58 17 13 14 26 41 30
59 3 19 11 34 18 34 6 0 31 -16 55 -35 57 -46 66 -36 15 17 l-39 41 48 -28
c26 -15 50 -25 53 -23 8 9 -50 60 -84 75 -33 14 -94 15 -86 1 3 -4 -16 -8 -43
-9 -26 0 -79 -8 -118 -19 -81 -21 -97 -18 -37 8 23 9 42 20 42 25 0 10 -7 8
-67 -12z m157 -61 c0 -5 -7 -10 -15 -10 -8 0 -15 5 -15 10 0 6 7 10 15 10 8 0
15 -4 15 -10z m51 -3 c-1 -12 -15 -9 -19 4 -3 6 1 10 8 8 6 -3 11 -8 11 -12z"/>
<path d="M955 2499 c-8 -20 12 -72 25 -64 14 9 12 38 -4 61 -13 16 -15 17 -21
3z"/>
<path d="M1510 2420 c0 -5 9 -10 21 -10 11 0 17 5 14 10 -3 6 -13 10 -21 10
-8 0 -14 -4 -14 -10z"/>
<path d="M3075 2409 c-4 -6 -5 -12 -2 -15 2 -3 7 2 10 11 7 17 1 20 -8 4z"/>
<path d="M1840 1910 c-23 -14 -2 -27 58 -35 43 -6 52 -4 52 9 0 30 -75 48
-110 26z"/>
<path d="M2168 1879 c-28 -16 -21 -29 15 -29 18 0 38 -5 45 -12 19 -19 50 15
32 36 -14 18 -66 21 -92 5z"/>
<path d="M1626 1522 c-11 -19 14 -24 127 -28 62 -2 126 -6 142 -10 l30 -6 -24
18 c-18 13 -47 19 -105 21 -45 1 -100 5 -122 9 -25 3 -44 2 -48 -4z"/>
<path d="M1958 1507 c-31 -12 -36 -25 -13 -34 9 -3 22 2 30 13 14 18 15 18 21
-4 4 -15 12 -21 21 -18 8 3 22 6 31 6 14 0 14 3 -3 19 -27 25 -54 31 -87 18z"/>
<path d="M2290 1495 c0 -10 -10 -15 -29 -15 -41 0 -48 -17 -11 -25 34 -8 130
3 130 14 0 7 -69 41 -83 41 -4 0 -7 -7 -7 -15z"/>
<path d="M2090 1475 c26 -15 77 -19 105 -9 30 12 -6 24 -70 23 -57 0 -59 0
-35 -14z"/>
<path d="M2694 1154 c5 -40 2 -77 -8 -115 -20 -76 -120 -244 -209 -352 -43
-52 -302 -239 -401 -289 -47 -24 -61 -37 -74 -68 -22 -59 -43 -59 -99 -3 -27
26 -86 77 -132 113 -46 36 -131 115 -190 176 -92 96 -116 128 -183 250 -77
138 -108 224 -108 296 0 38 -13 51 -24 23 -3 -8 -15 -77 -27 -152 -36 -234
-37 -239 -72 -273 -37 -37 -248 -142 -384 -191 -51 -19 -93 -37 -93 -40 0 -4
32 -33 71 -64 422 -341 975 -508 1500 -454 397 40 814 209 1092 441 l49 41
-104 37 c-222 79 -403 165 -441 210 -32 37 -70 153 -103 315 -18 85 -31 125
-46 139 l-20 19 6 -59z m-714 -944 c-6 -11 -12 -20 -13 -20 -2 0 -3 9 -3 20 0
11 6 20 13 20 11 0 11 -5 3 -20z"/>
<path d="M1738 853 c7 -3 16 -2 19 1 4 3 -2 6 -13 5 -11 0 -14 -3 -6 -6z"/>
</g>
</svg>
